# xmcd
#
# Track frame offsets:
# 150
# 14242
# 29605
# 45885
# 67530
# 83547
# 101667
# 114510
# 126382
# 148727
# 164845
# 180972
# 194472
# 213220
# 225200
# 243680
#
# Disc length: 3432 seconds
#
#
# Revision: 0
# Processed by: cddbd v1.5.1PL2 Copyright (c) Steve Scherf et al.
# Submitted via: FreeRIP 2.943 
#
DISCID=d50d6610
DTITLE=Various Artist - Walk The Line 2 (Country Music)
DYEAR=1998
DGENRE=Country
TTITLE0=01 - Kimber Clayton - Deep In The Heart
TTITLE1=02 - Cane Honey - Hallelujah Mama
TTITLE2=03 - Nashville Cats - Sweet Home Alabama
TTITLE3=04 - Cheap Seats - Something In The Water
TTITLE4=05 - Becky Hobbs - Honky Tonk Saturday Night
TTITLE5=06 - Nashville Cats - Texas Sun
TTITLE6=07 - Ronnie Beard - Boom Shake
TTITLE7=08 - Nashville Cats - Country Road
TTITLE8=09 - Rick Tippe - Bad Heart Day
TTITLE9=10 - Larry Thomas - Heartbreak Road
TTITLE10=11 - Nashville Cats - Sometimes Free
TTITLE11=12 - Jennifer Weatherly - In The Name Of Love
TTITLE12=13 - Back Door - One Heart
TTITLE13=14 - Nashville Cats - Rockin Robin
TTITLE14=15 - Flying Tortellinis - New Orleans Rock&Roll
TTITLE15=16 - Nashville Cats - Bad Moon Rising
EXTD=
EXTT0=
EXTT1=
EXTT2=
EXTT3=
EXTT4=
EXTT5=
EXTT6=
EXTT7=
EXTT8=
EXTT9=
EXTT10=
EXTT11=
EXTT12=
EXTT13=
EXTT14=
EXTT15=
PLAYORDER=
